<svg id="Capa_1" enable-background="new 0 0 512 512" height="512" viewBox="0 0 512 512" width="512" xmlns="http://www.w3.org/2000/svg"><g><g><path d="m256 10c-135.98 0-246 110.04-246 246 0 135.98 110.04 246 246 246 137.282 0 246-111.52 246-246 0-135.98-110.04-246-246-246z" fill="#ffed99"/><path d="m457.85 413.45c-9.504 13.554-28.234 16.855-41.79 7.32-13.56-9.52-40.06-64.77-40.06-64.77s60.97 6.14 74.53 15.66c13.59 9.543 16.817 28.261 7.32 41.79z" fill="#a57e63"/><g fill="#fff5f5"><path d="m336 156c22.09 0 40 22.39 40 50s-17.91 50-40 50-40-22.39-40-50 17.91-50 40-50z"/><path d="m176 156c22.09 0 40 22.39 40 50s-17.91 50-40 50-40-22.39-40-50 17.91-50 40-50z"/></g></g><g><circle cx="336" cy="216" r="10"/><circle cx="176" cy="216" r="10"/><path d="m126 206c0 33.084 22.43 60 50 60s50-26.916 50-60-22.43-60-50-60-50 26.916-50 60zm80 0c0 22.056-13.458 40-30 40s-30-17.944-30-40 13.458-40 30-40 30 17.944 30 40z"/><path d="m286 206c0 33.084 22.43 60 50 60s50-26.916 50-60-22.43-60-50-60-50 26.916-50 60zm50-40c16.542 0 30 17.944 30 40s-13.458 40-30 40-30-17.944-30-40 13.458-40 30-40z"/><path d="m191.528 87.056-80 40c-4.94 2.47-6.942 8.477-4.472 13.417 2.467 4.933 8.469 6.946 13.417 4.472l80-40c4.94-2.47 6.942-8.477 4.472-13.417-2.471-4.94-8.476-6.943-13.417-4.472z"/><path d="m391.528 144.944c4.951 2.476 10.952.457 13.417-4.472 2.47-4.94.468-10.947-4.472-13.417l-80-40c-4.939-2.47-10.946-.468-13.417 4.472-2.47 4.94-.468 10.947 4.472 13.417z"/><circle cx="82" cy="430" r="10"/><path d="m256 0c-141.582 0-256 114.384-256 256 0 52.164 15.56 102.336 44.997 145.091 3.132 4.549 9.359 5.698 13.908 2.565 4.549-3.132 5.698-9.358 2.566-13.907-27.131-39.404-41.471-85.654-41.471-133.749 0-130.131 105.869-236 236-236s236 105.869 236 236c0 39.948-9.971 78.832-28.968 113.462-2.003-2.223-4.262-4.235-6.756-5.986-14.928-10.481-68.545-16.344-79.239-17.422-.01-.001-.033-.003-.035-.004-.006-.001-.012 0-.018-.001-.324-.032-.652-.05-.984-.05h-30v-30c0-5.523-4.477-10-10-10s-10 4.477-10 10v30h-20v-30c0-5.523-4.477-10-10-10s-10 4.477-10 10v30h-20v-30c0-5.523-4.477-10-10-10s-10 4.477-10 10v30h-20v-30c0-5.523-4.477-10-10-10s-10 4.477-10 10v30h-20v-30c0-5.523-4.477-10-10-10s-10 4.477-10 10v30h-30c-5.523 0-10 4.477-10 10s4.477 10 10 10h50v30c0 5.523 4.477 10 10 10s10-4.477 10-10v-30h20v30c0 5.523 4.477 10 10 10s10-4.477 10-10v-30h20v30c0 5.523 4.477 10 10 10s10-4.477 10-10v-30h20v30c0 5.523 4.477 10 10 10s10-4.477 10-10v-30h43.753c7.974 16.103 27.591 53.848 40.554 62.949 1.225.862 2.49 1.647 3.786 2.36-43.376 39.258-98.88 60.692-158.093 60.692-48.094 0-94.344-14.34-133.749-41.471-4.549-3.132-10.776-1.983-13.908 2.566s-1.983 10.775 2.566 13.908c42.757 29.437 92.928 44.997 145.091 44.997 70.785 0 135.336-28.633 182.182-76.092 11.153-1.388 21.346-7.433 27.854-16.713 5.591-7.966 8.055-17.719 7.015-27.318 25.49-40.667 38.949-87.559 38.949-135.877 0-141.582-114.383-256-256-256zm193.663 407.708c-6.346 9.05-18.837 11.22-27.856 4.877-5.563-3.906-17.665-23.752-28.52-44.454 23.154 3.169 45.93 7.804 51.497 11.713 8.926 6.267 11.321 18.687 4.879 27.864z"/></g></g></svg>